<?xml version="1.0" encoding="UTF-8" standalone="no"?>
<!-- Created with Inkscape (http://www.inkscape.org/) -->

<svg
   xmlns:dc="http://purl.org/dc/elements/1.1/"
   xmlns:cc="http://creativecommons.org/ns#"
   xmlns:rdf="http://www.w3.org/1999/02/22-rdf-syntax-ns#"
   xmlns:svg="http://www.w3.org/2000/svg"
   xmlns="http://www.w3.org/2000/svg"
   xmlns:sodipodi="http://sodipodi.sourceforge.net/DTD/sodipodi-0.dtd"
   xmlns:inkscape="http://www.inkscape.org/namespaces/inkscape"
   width="210mm"
   height="297mm"
   viewBox="0 0 744.09448819 1052.3622047"
   id="svg2"
   version="1.1"
   inkscape:version="0.91 r13725"
   sodipodi:docname="btg-inst.svg">
  <sodipodi:namedview
     id="base"
     pagecolor="#ffffff"
     bordercolor="#666666"
     borderopacity="1.0"
     inkscape:pageopacity="0.0"
     inkscape:pageshadow="2"
     inkscape:zoom="1.3486957"
     inkscape:cx="353.75265"
     inkscape:cy="750.23438"
     inkscape:document-units="px"
     inkscape:current-layer="layer1"
     showgrid="false"
     inkscape:window-width="1855"
     inkscape:window-height="1056"
     inkscape:window-x="65"
     inkscape:window-y="24"
     inkscape:window-maximized="1" />
  <defs
     id="defs4" />
  <metadata
     id="metadata7">
    <rdf:RDF>
      <cc:Work
         rdf:about="">
        <dc:format>image/svg+xml</dc:format>
        <dc:type
           rdf:resource="http://purl.org/dc/dcmitype/StillImage" />
        <dc:title></dc:title>
      </cc:Work>
    </rdf:RDF>
  </metadata>
  <g
     inkscape:label="Layer 1"
     inkscape:groupmode="layer"
     id="layer1">
    <circle
       transform="matrix(0.9735535,0.22845917,0.22845917,-0.9735535,0,0)"
       style="fill:#ffffff;fill-opacity:1;stroke:#000000;stroke-width:1.01300001;stroke-miterlimit:0;stroke-dasharray:none;stroke-dashoffset:0;stroke-opacity:1"
       id="path4145"
       cx="175.84346"
       cy="-104.43276"
       r="51.556561" />
    <ellipse
       transform="matrix(0.9735535,0.22845917,0.22845917,-0.9735535,0,0)"
       style="fill:#ffffff;fill-opacity:1;stroke:#000000;stroke-width:0.53171176;stroke-miterlimit:0;stroke-dasharray:none;stroke-dashoffset:0;stroke-opacity:1"
       id="path4145-3"
       cx="199.36748"
       cy="-102.50542"
       rx="26.900309"
       ry="27.223518" />
    <circle
       transform="matrix(-0.9992259,-0.03933944,-0.03933944,0.9992259,0,0)"
       style="fill:#ffffff;fill-opacity:1;stroke:#000000;stroke-width:1.01300001;stroke-miterlimit:0;stroke-dasharray:none;stroke-dashoffset:0;stroke-opacity:1"
       id="path4145-7"
       cx="-445.55215"
       cy="124.93935"
       r="51.556561" />
    <ellipse
       transform="matrix(-0.9992259,-0.03933944,-0.03933944,0.9992259,0,0)"
       style="fill:#ffffff;fill-opacity:1;stroke:#000000;stroke-width:0.53171176;stroke-miterlimit:0;stroke-dasharray:none;stroke-dashoffset:0;stroke-opacity:1"
       id="path4145-3-5"
       cx="-422.02811"
       cy="126.86671"
       rx="26.900309"
       ry="27.223518" />
    <path
       inkscape:connection-end="#path4145-7"
       inkscape:connection-start="#path4145"
       inkscape:connector-curvature="0"
       inkscape:connector-type="polyline"
       id="path4263"
       d="m 198.88997,141.93658 189.84598,0.34117"
       style="fill:none;fill-rule:evenodd;stroke:#000000;stroke-width:1px;stroke-linecap:butt;stroke-linejoin:miter;stroke-opacity:1" />
    <text
       sodipodi:linespacing="125%"
       id="text4273"
       y="135.92123"
       x="291.39264"
       style="font-style:normal;font-weight:normal;font-size:15px;line-height:125%;font-family:sans-serif;letter-spacing:0px;word-spacing:0px;fill:#000000;fill-opacity:1;stroke:none;stroke-width:1px;stroke-linecap:butt;stroke-linejoin:miter;stroke-opacity:1"
       xml:space="preserve"><tspan
         y="135.92123"
         x="291.39264"
         id="tspan4275"
         sodipodi:role="line" /></text>
    <g
       id="g4303"
       transform="matrix(0.4596774,0,0,0.43156372,142.27718,-18.441835)">
      <g
         word-spacing="normal"
         letter-spacing="normal"
         font-size-adjust="none"
         font-stretch="normal"
         font-weight="normal"
         font-variant="normal"
         font-style="normal"
         stroke-miterlimit="10.433"
         xml:space="preserve"
         transform="matrix(1.0629921,0,0,-1.0629921,-186.02362,789.27165)"
         id="content"
         style="font-style:normal;font-variant:normal;font-weight:normal;font-stretch:normal;letter-spacing:normal;word-spacing:normal;text-anchor:start;fill:none;fill-opacity:1;fill-rule:evenodd;stroke:#000000;stroke-linecap:butt;stroke-linejoin:miter;stroke-miterlimit:10.43299961;stroke-dasharray:none;stroke-dashoffset:0;stroke-opacity:1"><path
           id="path4306"
           d="m 475.25,425.14 -0.14,0 -0.15,0 -0.15,-0.01 -0.14,0 -0.14,-0.01 -0.14,-0.02 -0.07,-0.01 -0.07,-0.01 -0.06,-0.02 -0.07,-0.01 -0.07,-0.02 -0.07,-0.02 -0.07,-0.02 -0.06,-0.02 -0.07,-0.03 -0.07,-0.03 -0.06,-0.03 -0.07,-0.04 -0.07,-0.04 -0.06,-0.04 -0.07,-0.05 -0.07,-0.04 -0.06,-0.06 -0.07,-0.05 -0.06,-0.06 -0.07,-0.07 c -0.8,-0.75 -0.89,-1.59 -0.89,-1.93 0,-1.21 0.89,-1.75 1.84,-1.75 1.44,0 2.8,1.2 2.8,3.18 0,2.44 -2.34,4.28 -5.89,4.28 -6.72,0 -13.34,-7.12 -13.34,-14.14 0,-4.48 2.89,-8.42 8.06,-8.42 7.12,0 11.31,5.28 11.31,5.88 0,0.29 -0.3,0.65 -0.59,0.65 -0.25,0 -0.35,-0.11 -0.66,-0.5 -3.94,-4.93 -9.36,-4.93 -9.95,-4.93 -3.14,0 -4.49,2.43 -4.49,5.43 0,2.03 0.99,6.88 2.69,9.96 1.55,2.84 4.28,4.98 7.02,4.98 1.7,0 3.59,-0.64 4.29,-1.98 z"
           inkscape:connector-curvature="0"
           style="fill:#000000;stroke-width:0" /><path
           id="path4308"
           d="m 483.07,407.12 0,2.3 0,8.33 3.57,0 c 3.37,0 4.76,-2.44 4.76,-4.14 0,-1.85 -1.45,-4.19 -4.76,-4.19 l -3.57,0 0,-2.3 4.3,0 c 4.14,0 6.69,3.25 6.69,6.45 0,3.32 -2.61,6.49 -6.69,6.49 l -7.87,0 c -0.57,0 -1.5,0 -1.5,-1.16 0,-1.15 0.93,-1.15 1.5,-1.15 l 0.93,0 0,-16.69 -0.93,0 c -0.57,0 -1.5,0 -1.5,-1.14 0,-1.16 0.93,-1.16 1.5,-1.16 l 4.53,0 c 0.54,0 1.48,0 1.48,1.16 0,1.14 -0.94,1.14 -1.48,1.14 l -0.96,0 z"
           inkscape:connector-curvature="0"
           style="fill:#000000;stroke-width:0" /><path
           id="path4310"
           d="m 506.85,419.21 -0.02,0.07 -0.01,0.06 -0.02,0.06 -0.02,0.05 -0.01,0.06 -0.02,0.05 -0.02,0.05 -0.02,0.05 -0.02,0.05 -0.02,0.05 -0.04,0.09 -0.05,0.08 -0.05,0.07 -0.05,0.07 -0.05,0.06 -0.05,0.06 -0.06,0.05 -0.06,0.05 -0.06,0.04 -0.06,0.04 -0.07,0.03 -0.06,0.03 -0.07,0.03 -0.07,0.02 -0.07,0.02 -0.07,0.02 -0.08,0.01 -0.07,0.01 -0.08,0.01 -0.08,0.01 -0.08,0.01 -0.08,0 -0.08,0 -0.17,0 -0.18,0 c -1.08,0 -1.67,0 -1.98,-1.36 l -4.19,-18.15 c -1.19,0 -2.09,0 -2.09,-1.14 0,-1.16 1.04,-1.16 1.54,-1.16 l 3.69,0 c 0.49,0 1.53,0 1.53,1.16 0,1.14 -0.94,1.14 -1.95,1.14 l 0.7,3.17 0.52,2.3 c 0.31,1.33 2.09,9.09 2.2,10.62 l 0.03,0 c 0.06,-0.72 0.28,-1.62 0.49,-2.61 l 1.7,-8.01 -4.42,0 -0.52,-2.3 5.5,0 0.71,-3.17 c -1.02,0 -1.96,0 -1.96,-1.14 0,-1.16 1.05,-1.16 1.53,-1.16 l 3.69,0 c 0.5,0 1.53,0 1.53,1.16 0,1.14 -0.9,1.14 -2.08,1.14 z"
           inkscape:connector-curvature="0"
           style="fill:#000000;stroke-width:0" /></g>    </g>
    <g
       transform="matrix(0.32917863,0,0,0.34402627,304.52128,25.40704)"
       id="g4356">
      <g
         style="font-style:normal;font-variant:normal;font-weight:normal;font-stretch:normal;letter-spacing:normal;word-spacing:normal;text-anchor:start;fill:none;fill-opacity:1;fill-rule:evenodd;stroke:#000000;stroke-linecap:butt;stroke-linejoin:miter;stroke-miterlimit:10.43299961;stroke-dasharray:none;stroke-dashoffset:0;stroke-opacity:1"
         id="g4358"
         transform="matrix(1.0629921,0,0,-1.0629921,-186.02362,789.27165)"
         xml:space="preserve"
         stroke-miterlimit="10.433"
         font-style="normal"
         font-variant="normal"
         font-weight="normal"
         font-stretch="normal"
         font-size-adjust="none"
         letter-spacing="normal"
         word-spacing="normal"><path
           style="fill:#000000;stroke-width:0"
           inkscape:connector-curvature="0"
           d="m 463.44,410.09 -0.04,-0.18 -0.05,-0.17 -0.04,-0.16 -0.05,-0.15 -0.04,-0.15 -0.05,-0.13 -0.04,-0.13 -0.05,-0.12 -0.06,-0.11 -0.06,-0.11 -0.06,-0.1 -0.07,-0.09 -0.08,-0.09 -0.09,-0.07 -0.09,-0.08 -0.11,-0.06 -0.11,-0.07 -0.12,-0.05 -0.14,-0.05 -0.15,-0.05 -0.16,-0.04 -0.09,-0.02 -0.08,-0.01 -0.1,-0.02 -0.1,-0.02 -0.1,-0.01 -0.1,-0.01 -0.11,-0.01 -0.11,-0.02 -0.12,-0.01 -0.12,-0.01 -0.13,0 -0.13,-0.01 -0.13,-0.01 -0.15,0 -0.14,-0.01 -0.15,0 -0.16,-0.01 -0.16,0 -0.16,0 -0.17,0 -0.18,0 -0.18,0 c -0.84,0 -1.39,0 -1.39,-0.96 0,-0.59 0.44,-0.59 1.39,-0.59 l 16.48,0 -0.89,1.55 -5.62,0 c -0.7,0 -0.8,0 -1.11,0.04 -0.48,0.05 -0.64,0.1 -0.64,0.5 0,0.14 0,0.25 0.25,1.14 l 6.83,27.36 c 0.43,1.74 0.54,1.89 2.68,1.89 l 5.33,0 c 4.89,0 9.02,-2.64 9.02,-9.22 0,-2.43 -1,-10.6 -5.24,-16.09 -1.43,-1.84 -5.37,-5.62 -11.5,-5.62 l 0.89,-1.55 c 10.36,0 20.19,10.51 20.19,21.42 0,7.03 -4.23,12.61 -11.72,12.61 l -16.73,0 c -0.95,0 -1.5,0 -1.5,-0.95 0,-0.6 0.45,-0.6 1.45,-0.6 0.64,0 1.55,-0.04 2.14,-0.09 0.8,-0.11 1.1,-0.25 1.1,-0.8 0,-0.2 -0.05,-0.36 -0.21,-0.95 z"
           id="path4360" /><path
           style="fill:#000000;stroke-width:0"
           inkscape:connector-curvature="0"
           d="m 502.75,407.12 0,2.3 0,8.33 3.57,0 c 3.37,0 4.76,-2.44 4.76,-4.14 0,-1.85 -1.45,-4.19 -4.76,-4.19 l -3.57,0 0,-2.3 4.3,0 c 4.14,0 6.69,3.25 6.69,6.45 0,3.32 -2.61,6.49 -6.69,6.49 l -7.87,0 c -0.57,0 -1.5,0 -1.5,-1.16 0,-1.15 0.93,-1.15 1.5,-1.15 l 0.93,0 0,-16.69 -0.93,0 c -0.57,0 -1.5,0 -1.5,-1.14 0,-1.16 0.93,-1.16 1.5,-1.16 l 4.53,0 c 0.54,0 1.48,0 1.48,1.16 0,1.14 -0.94,1.14 -1.48,1.14 l -0.96,0 z"
           id="path4362" /><path
           style="fill:#000000;stroke-width:0"
           inkscape:connector-curvature="0"
           d="m 526.53,419.21 -0.02,0.07 -0.01,0.06 -0.02,0.06 -0.02,0.05 -0.01,0.06 -0.02,0.05 -0.02,0.05 -0.02,0.05 -0.02,0.05 -0.02,0.05 -0.04,0.09 -0.05,0.08 -0.05,0.07 -0.05,0.07 -0.05,0.06 -0.05,0.06 -0.06,0.05 -0.06,0.05 -0.06,0.04 -0.06,0.04 -0.07,0.03 -0.06,0.03 -0.07,0.03 -0.07,0.02 -0.07,0.02 -0.07,0.02 -0.08,0.01 -0.07,0.01 -0.08,0.01 -0.08,0.01 -0.08,0.01 -0.08,0 -0.09,0 -0.16,0 -0.18,0 c -1.08,0 -1.67,0 -1.98,-1.36 l -4.19,-18.15 c -1.19,0 -2.09,0 -2.09,-1.14 0,-1.16 1.04,-1.16 1.54,-1.16 l 3.69,0 c 0.49,0 1.53,0 1.53,1.16 0,1.14 -0.94,1.14 -1.95,1.14 l 0.7,3.17 0.52,2.3 c 0.31,1.33 2.09,9.09 2.2,10.62 l 0.03,0 c 0.06,-0.72 0.28,-1.62 0.49,-2.61 l 1.7,-8.01 -4.42,0 -0.52,-2.3 5.5,0 0.71,-3.17 c -1.02,0 -1.96,0 -1.96,-1.14 0,-1.16 1.05,-1.16 1.53,-1.16 l 3.69,0 c 0.5,0 1.53,0 1.53,1.16 0,1.14 -0.91,1.14 -2.08,1.14 z"
           id="path4364" /></g>    </g>
    <g
       id="g4420"
       transform="matrix(0.2970936,0,0,0.2970936,15.848136,43.880974)">
      <g
         word-spacing="normal"
         letter-spacing="normal"
         font-size-adjust="none"
         font-stretch="normal"
         font-weight="normal"
         font-variant="normal"
         font-style="normal"
         stroke-miterlimit="10.433"
         xml:space="preserve"
         transform="matrix(1.0629921,0,0,-1.0629921,-186.02362,789.27165)"
         id="g4422"
         style="font-style:normal;font-variant:normal;font-weight:normal;font-stretch:normal;letter-spacing:normal;word-spacing:normal;text-anchor:start;fill:none;fill-opacity:1;fill-rule:evenodd;stroke:#000000;stroke-linecap:butt;stroke-linejoin:miter;stroke-miterlimit:10.43299961;stroke-dasharray:none;stroke-dashoffset:0;stroke-opacity:1"><path
           id="path4424"
           d="m 462.64,413.23 0.02,-0.01 0.03,-0.02 0.04,-0.03 0.05,-0.02 0.06,-0.04 0.07,-0.04 0.07,-0.04 0.09,-0.04 0.09,-0.05 0.1,-0.05 0.11,-0.05 0.12,-0.05 0.12,-0.06 0.14,-0.05 0.14,-0.06 0.14,-0.06 0.15,-0.05 0.16,-0.06 0.17,-0.05 0.17,-0.05 0.18,-0.05 0.18,-0.05 0.19,-0.05 0.19,-0.04 0.2,-0.04 0.2,-0.03 0.21,-0.03 0.21,-0.03 0.22,-0.02 0.22,-0.02 0.22,-0.01 0.23,0 0,2.98 c -2.69,0 -4.78,2.35 -4.78,4.99 0,2.84 2.19,5.03 4.78,5.03 2.69,0 4.78,-2.34 4.78,-4.98 0,-2.85 -2.19,-5.04 -4.78,-5.04 l 0,0 0,-2.98 c 4.58,0 8.22,3.58 8.22,8.02 0,1.5 -0.46,2.93 -1.3,4.34 1.05,0.59 2.25,0.8 2.89,0.84 0.3,-1.34 1.45,-1.7 1.94,-1.7 0.86,0 2,0.61 2,2.05 0,1.15 -0.95,2.68 -3.64,2.68 -0.55,0 -2.99,-0.04 -5.28,-1.73 -0.8,0.55 -2.53,1.48 -4.83,1.48 -4.69,0 -8.22,-3.73 -8.22,-7.96 0,-2.14 0.84,-3.79 1.59,-4.74 -0.54,-0.8 -1,-1.89 -1,-3.39 0,-1.73 0.71,-2.98 1.14,-3.58 -3.68,-2.25 -3.68,-5.62 -3.68,-6.17 l 2.89,0 c 0,0.89 0.45,2.49 2.04,3.49 1.25,0.79 1.71,0.79 5.33,0.79 4.44,0 10.07,0 10.07,-4.28 0,-2.2 -3.74,-4.34 -8.72,-4.34 l 0,0 c -4.97,0 -8.72,2.14 -8.72,4.34 l -2.89,0 c 0,-4.3 5.23,-7.33 11.61,-7.33 6.39,0 11.61,3.1 11.61,7.33 0,1.84 -0.89,4.33 -3.44,5.67 -0.64,0.35 -2.74,1.46 -7.22,1.46 l -3.48,0 c -0.41,0 -1.05,0 -1.46,0.09 -0.75,0 -1.04,0 -1.64,0.7 -0.55,0.69 -0.59,1.69 -0.59,1.78 0,0.21 0.09,0.91 0.29,1.41 z"
           inkscape:connector-curvature="0"
           style="fill:#000000;stroke-width:0" /><path
           id="path4426"
           d="m 502.8,415.71 0.2,0.01 0.19,0 0.09,0 0.09,0.01 0.09,0 0.09,0.01 0.09,0.02 0.09,0.01 0.08,0.02 0.08,0.02 0.08,0.03 0.07,0.03 0.08,0.03 0.07,0.05 0.06,0.04 0.07,0.05 0.06,0.06 0.05,0.07 0.06,0.07 0.02,0.03 0.03,0.04 0.02,0.05 0.02,0.04 0.02,0.05 0.02,0.04 0.02,0.05 0.02,0.05 0.02,0.06 0.01,0.05 0.02,0.06 0.01,0.06 0.01,0.07 0.01,0.06 0.01,0.07 0.01,0.07 0.01,0.07 0,0.07 0.01,0.08 0,0.08 0,0.08 0.01,0.09 c 0,5.67 -3.19,10.56 -9.66,10.56 -5.94,0 -10.72,-4.98 -10.72,-11.11 0,-6.08 5.03,-11.11 11.47,-11.11 6.58,0 8.91,4.49 8.91,5.74 0,1.39 -1.44,1.39 -1.74,1.39 -0.89,0 -1.3,-0.16 -1.64,-1.1 -1.09,-2.54 -3.8,-3 -5.19,-3 -3.73,0 -7.47,2.5 -8.26,6.78 l 0.04,2.99 c 0.71,3.64 3.64,6.37 7.13,6.37 2.59,0 5.67,-1.23 6.12,-6.37 l -13.25,0 -0.04,-2.99 z"
           inkscape:connector-curvature="0"
           style="fill:#000000;stroke-width:0" /><path
           id="path4428"
           d="m 518.9,424.64 8.17,0 c 0.75,0 1.98,0 1.98,1.48 0,1.55 -1.19,1.55 -1.98,1.55 l -8.17,0 0,4.09 c 0,0.94 0,2.03 -1.71,2.03 -1.73,0 -1.73,-1.03 -1.73,-2.03 l 0,-4.09 -4.35,0 c -0.79,0 -2.03,0 -2.03,-1.55 0,-1.48 1.24,-1.48 1.99,-1.48 l 4.39,0 0,-12.16 c 0,-4.78 3.39,-6.58 7.01,-6.58 3.69,0 7.74,2.14 7.74,6.58 0,0.89 0,1.94 -1.75,1.94 -1.64,0 -1.69,-1.05 -1.69,-1.89 -0.06,-3.1 -2.89,-3.6 -4.05,-3.6 -3.82,0 -3.82,2.6 -3.82,3.85 z"
           inkscape:connector-curvature="0"
           style="fill:#000000;stroke-width:0" /><path
           id="path4430"
           d="m 548.44,424.59 -0.11,-0.33 -0.11,-0.33 -0.1,-0.32 -0.1,-0.31 -0.1,-0.3 -0.09,-0.3 -0.09,-0.3 -0.09,-0.29 -0.08,-0.28 -0.08,-0.29 -0.07,-0.28 -0.07,-0.27 -0.07,-0.28 -0.06,-0.27 -0.12,-0.54 -0.07,0 c -0.48,2.35 -4.87,15.25 -4.96,15.55 -0.5,1.19 -1.75,1.19 -2.46,1.19 l -2.78,0 c -0.75,0 -2,0 -2,-1.49 0,-1.54 1.05,-1.54 2.64,-1.54 l 0,-24.36 c -1.59,0 -2.64,0 -2.64,-1.55 0,-1.5 1.25,-1.5 2,-1.5 l 4.08,0 c 0.75,0 2,0 2,1.5 0,1.55 -1.05,1.55 -2.64,1.55 l 0,23.75 0.05,0 c 0.54,-2.29 3.73,-11.85 3.93,-12.5 0.4,-1.14 1.05,-3.04 1.3,-3.39 0.3,-0.4 0.89,-0.75 1.48,-0.75 0.66,0 1.35,0.4 1.75,1.1 0.16,0.3 4.4,12.9 4.99,15.54 l 0.05,0 0,-23.75 c -1.6,0 -2.64,0 -2.64,-1.55 0,-1.5 1.25,-1.5 2,-1.5 l 4.07,0 c 0.75,0 2,0 2,1.5 0,1.55 -1.04,1.55 -2.64,1.55 l 0,24.36 c 1.6,0 2.64,0 2.64,1.54 0,1.49 -1.25,1.49 -2,1.49 l -2.78,0 c -2.04,0 -2.25,-0.69 -2.7,-1.99 z"
           inkscape:connector-curvature="0"
           style="fill:#000000;stroke-width:0" /><path
           id="path4432"
           d="m 581.27,415.71 0.19,0.01 0.2,0 0.09,0 0.09,0.01 0.09,0 0.09,0.01 0.09,0.02 0.08,0.01 0.09,0.02 0.08,0.02 0.08,0.03 0.07,0.03 0.07,0.03 0.07,0.05 0.07,0.04 0.06,0.05 0.07,0.06 0.05,0.07 0.06,0.07 0.02,0.03 0.02,0.04 0.03,0.05 0.02,0.04 0.02,0.05 0.02,0.04 0.02,0.05 0.02,0.05 0.01,0.06 0.02,0.05 0.02,0.06 0.01,0.06 0.01,0.07 0.01,0.06 0.01,0.07 0.01,0.07 0.01,0.07 0,0.07 0.01,0.08 0,0.08 0,0.08 0,0.09 c 0,5.67 -3.18,10.56 -9.65,10.56 -5.94,0 -10.72,-4.98 -10.72,-11.11 0,-6.08 5.03,-11.11 11.47,-11.11 6.58,0 8.9,4.49 8.9,5.74 0,1.39 -1.43,1.39 -1.73,1.39 -0.89,0 -1.3,-0.16 -1.64,-1.1 -1.1,-2.54 -3.8,-3 -5.19,-3 -3.73,0 -7.47,2.5 -8.26,6.78 l 0.04,2.99 c 0.71,3.64 3.64,6.37 7.13,6.37 2.59,0 5.67,-1.23 6.12,-6.37 l -13.25,0 -0.04,-2.99 z"
           inkscape:connector-curvature="0"
           style="fill:#000000;stroke-width:0" /><path
           id="path4434"
           d="m 604.15,408.68 0,-0.16 0,-0.16 0,-0.15 0,-0.14 0,-0.14 0.01,-0.14 0.01,-0.12 0.01,-0.13 0.01,-0.11 0.02,-0.11 0.02,-0.11 0.02,-0.1 0.03,-0.09 0.03,-0.09 0.04,-0.08 0.04,-0.08 0.05,-0.07 0.06,-0.07 0.06,-0.06 0.07,-0.05 0.08,-0.06 0.08,-0.04 0.04,-0.03 0.05,-0.02 0.05,-0.02 0.05,-0.01 0.06,-0.02 0.05,-0.02 0.06,-0.01 0.06,-0.01 0.06,-0.02 0.07,-0.01 0.06,-0.01 0.07,-0.01 0.08,-0.01 0.07,0 0.08,-0.01 0.08,0 0.08,-0.01 0.09,0 0.09,0 0.09,0 3.64,0 c 0.8,0 2.05,0 2.05,1.55 0,1.5 -1.3,1.5 -2,1.5 l -2.24,0 0,25.34 c 0,1.55 -0.31,2.05 -2,2.05 l -3.64,0 c -0.79,0 -2.04,0 -2.04,-1.55 0,-1.48 1.29,-1.48 2,-1.48 l 2.25,0 0,-7.88 c -1.66,1.44 -3.69,2.23 -5.85,2.23 l 0.2,-3.03 c 3.19,0 5.65,-2.79 5.65,-5.53 l 0,0 0,-3.53 c 0,-2.8 -2.25,-6.94 -6.08,-6.94 -3.55,0 -6.54,3.55 -6.54,7.99 0,4.78 3.49,8.01 6.97,8.01 l -0.2,3.03 c -5.42,0 -10.2,-4.73 -10.2,-11.04 0,-6.19 4.48,-11.02 9.76,-11.02 2.79,0 4.88,1.35 6.29,2.78 z"
           inkscape:connector-curvature="0"
           style="fill:#000000;stroke-width:0" /><path
           id="path4436"
           d="m 634.22,433.61 1.25,0 c 0.75,0 2,0 2,1.48 0,1.55 -1.2,1.55 -2,1.55 l -5.92,0 c -0.75,0 -2,0 -2,-1.49 0,-1.54 1.2,-1.54 2,-1.54 l 1.23,0 0,-10.07 -10.56,0 0,10.07 1.25,0 c 0.75,0 2,0 2,1.48 0,1.55 -1.2,1.55 -2,1.55 l -5.92,0 c -0.8,0 -2,0 -2,-1.55 0,-1.48 1.25,-1.48 2,-1.48 l 1.23,0 0,-24.36 -1.23,0 c -0.8,0 -2,0 -2,-1.55 0,-1.5 1.25,-1.5 2,-1.5 l 5.92,0 c 0.75,0 2,0 2,1.5 0,1.55 -1.2,1.55 -2,1.55 l -1.25,0 0,11.25 10.56,0 0,-11.25 -1.23,0 c -0.75,0 -2,0 -2,-1.5 0,-1.55 1.2,-1.55 2,-1.55 l 5.92,0 c 0.75,0 2,0 2,1.5 0,1.55 -1.2,1.55 -2,1.55 l -1.25,0 z"
           inkscape:connector-curvature="0"
           style="fill:#000000;stroke-width:0" /><path
           id="path4438"
           d="m 654,425.64 0,0.14 0,0.13 0,0.13 -0.01,0.12 -0.01,0.12 -0.01,0.11 -0.02,0.11 -0.02,0.1 -0.02,0.1 -0.03,0.09 -0.03,0.08 -0.03,0.08 -0.04,0.08 -0.04,0.07 -0.04,0.07 -0.06,0.06 -0.05,0.05 -0.06,0.06 -0.07,0.04 -0.07,0.05 -0.08,0.04 -0.08,0.04 -0.09,0.03 -0.1,0.03 -0.1,0.02 -0.11,0.02 -0.12,0.02 -0.12,0.01 -0.13,0.01 -0.14,0.01 -0.15,0.01 -0.07,0 -0.08,0 -7.08,0 c -0.75,0 -2.04,0 -2.04,-1.49 0,-1.54 1.29,-1.54 2.04,-1.54 l 5.63,0 0,-15.39 -6.04,0 c -0.79,0 -2.03,0 -2.03,-1.55 0,-1.5 1.3,-1.5 2.03,-1.5 l 14.71,0 c 0.75,0 2.04,0 2.04,1.5 0,1.55 -1.29,1.55 -2.04,1.55 l -5.24,0 z"
           inkscape:connector-curvature="0"
           style="fill:#000000;stroke-width:0" /><path
           id="path4440"
           d="m 654,434.2 0,0.13 -0.01,0.13 -0.01,0.12 -0.03,0.13 -0.02,0.12 -0.04,0.11 -0.03,0.12 -0.05,0.11 -0.05,0.11 -0.05,0.11 -0.06,0.11 -0.07,0.1 -0.06,0.09 -0.08,0.1 -0.07,0.09 -0.09,0.08 -0.08,0.08 -0.09,0.08 -0.1,0.08 -0.09,0.06 -0.1,0.07 -0.11,0.06 -0.11,0.05 -0.11,0.05 -0.11,0.05 -0.11,0.03 -0.12,0.04 -0.12,0.02 -0.13,0.03 -0.12,0.01 -0.13,0.01 -0.13,0 c -1.39,0 -2.5,-1.09 -2.5,-2.48 0,-1.39 1.11,-2.49 2.5,-2.49 1.39,0 2.48,1.1 2.48,2.49 z"
           inkscape:connector-curvature="0"
           style="fill:#000000;stroke-width:0" /><path
           id="path4442"
           d="m 679.61,418.9 -0.21,0.04 -0.21,0.04 -0.41,0.07 -0.41,0.06 -0.41,0.07 -0.21,0.04 -0.21,0.03 -0.21,0.04 -0.21,0.04 -0.22,0.04 -0.22,0.04 -0.23,0.04 -0.23,0.05 c -1.44,0.2 -4.82,0.79 -4.82,2.75 0,1.29 1.59,2.82 6.32,2.82 4.14,0 4.83,-1.48 4.99,-2.78 0.04,-0.84 0.14,-1.7 1.69,-1.7 1.75,0 1.75,1.05 1.75,2.05 l 0,3.43 c 0,0.8 0,2.05 -1.5,2.05 -1.19,0 -1.4,-0.7 -1.49,-1.05 -2.2,1.05 -4.39,1.05 -5.34,1.05 -8.32,0 -9.46,-4.08 -9.46,-5.87 0,-4.6 5.22,-5.44 9.82,-6.13 2.43,-0.41 6.42,-1.05 6.42,-3.69 0,-1.84 -1.85,-3.5 -6.38,-3.5 -2.34,0 -5.14,0.55 -6.37,4.44 -0.25,0.91 -0.45,1.45 -1.75,1.45 -1.74,0 -1.74,-1.04 -1.74,-2.04 l 0,-4.83 c 0,-0.8 0,-2.05 1.49,-2.05 0.45,0 1.25,0.05 1.84,1.89 2.44,-1.79 5.08,-1.89 6.49,-1.89 7.87,0 9.47,4.14 9.47,6.53 0,5.18 -6.44,6.22 -8.04,6.47 z"
           inkscape:connector-curvature="0"
           style="fill:#000000;stroke-width:0" /><path
           id="path4444"
           d="m 701.99,424.64 8.17,0 c 0.75,0 1.99,0 1.99,1.48 0,1.55 -1.19,1.55 -1.99,1.55 l -8.17,0 0,4.09 c 0,0.94 0,2.03 -1.71,2.03 -1.73,0 -1.73,-1.03 -1.73,-2.03 l 0,-4.09 -4.34,0 c -0.8,0 -2.03,0 -2.03,-1.55 0,-1.48 1.23,-1.48 1.98,-1.48 l 4.39,0 0,-12.16 c 0,-4.78 3.39,-6.58 7.02,-6.58 3.68,0 7.73,2.14 7.73,6.58 0,0.89 0,1.94 -1.75,1.94 -1.64,0 -1.69,-1.05 -1.69,-1.89 -0.06,-3.1 -2.89,-3.6 -4.04,-3.6 -3.83,0 -3.83,2.6 -3.83,3.85 z"
           inkscape:connector-curvature="0"
           style="fill:#000000;stroke-width:0" /></g>    </g>
    <g
       id="g4526"
       transform="matrix(0.38547038,0,0,0.38547038,-5.1227035,-54.020746)">
      <g
         id="g4528"
         transform="matrix(1.0629921,0,0,-1.0629921,-186.02362,789.27165)"
         xml:space="preserve"
         stroke-miterlimit="10.433"
         font-style="normal"
         font-variant="normal"
         font-weight="normal"
         font-stretch="normal"
         font-size-adjust="none"
         letter-spacing="normal"
         word-spacing="normal"
         style="font-style:normal;font-variant:normal;font-weight:normal;font-stretch:normal;letter-spacing:normal;word-spacing:normal;text-anchor:start;fill:none;fill-opacity:1;fill-rule:evenodd;stroke:#000000;stroke-linecap:butt;stroke-linejoin:miter;stroke-miterlimit:10.43299961;stroke-dasharray:none;stroke-dashoffset:0;stroke-opacity:1"><path
           d="m 463.79,418.4 0,3.05 0,12.16 5.28,0 c 4.78,0 6.93,-3.44 6.93,-6.08 0,-2.64 -2.15,-6.08 -6.93,-6.08 l -5.28,0 0,-3.05 6.23,0 c 5.78,0 9.42,4.49 9.42,9.13 0,4.62 -3.69,9.11 -9.42,9.11 l -11.16,0 c -0.75,0 -2.04,0 -2.04,-1.49 0,-1.54 1.29,-1.54 2.04,-1.54 l 1.49,0 0,-24.36 -1.49,0 c -0.79,0 -2.04,0 -2.04,-1.55 0,-1.5 1.29,-1.5 2.04,-1.5 l 6.43,0 c 0.75,0 2.04,0 2.04,1.5 0,1.55 -1.29,1.55 -2.04,1.55 l -1.5,0 z"
           id="path4530"
           inkscape:connector-curvature="0"
           style="fill:#000000;stroke-width:0" /><path
           d="m 499.91,407.79 0.11,-0.14 0.11,-0.13 0.12,-0.12 0.13,-0.12 0.13,-0.11 0.14,-0.1 0.15,-0.09 0.15,-0.09 0.15,-0.08 0.16,-0.07 0.16,-0.07 0.17,-0.06 0.17,-0.06 0.18,-0.05 0.18,-0.04 0.18,-0.04 0.18,-0.04 0.19,-0.03 0.18,-0.03 0.19,-0.02 0.38,-0.04 0.38,-0.03 0.38,-0.02 0.38,-0.01 0.37,0 0.36,0 c 1.4,0 2.5,0 2.5,1.55 0,1.5 -1.25,1.5 -2,1.5 -2.1,0 -2.6,0.23 -2.99,0.39 l 0,10.76 c 0,3.53 -2.69,7.72 -9.86,7.72 -2.14,0 -7.23,0 -7.23,-3.64 0,-1.48 1.04,-2.28 2.25,-2.28 0.75,0 2.14,0.44 2.18,2.28 0,0.41 0.05,0.45 1.05,0.55 0.7,0.04 1.35,0.04 1.8,0.04 3.78,0 6.37,-1.53 6.37,-5.07 l 0,-2.94 0,-4.19 c 0,-1.14 0,-2.19 -1.93,-3.08 -1.8,-0.86 -4.05,-0.86 -4.44,-0.86 -3.1,0 -5.14,1.71 -5.14,3.64 0,2.44 4.29,4.29 11.51,4.49 l 0,0 0,2.94 c -8.81,-0.14 -14.95,-2.64 -14.95,-7.43 0,-3.43 3.14,-6.67 8.22,-6.67 1.84,0 4.94,0.35 7.28,1.89 z"
           id="path4532"
           inkscape:connector-curvature="0"
           style="fill:#000000;stroke-width:0" /><path
           d="m 518.9,424.64 8.17,0 c 0.75,0 1.98,0 1.98,1.48 0,1.55 -1.19,1.55 -1.98,1.55 l -8.17,0 0,4.09 c 0,0.94 0,2.03 -1.71,2.03 -1.73,0 -1.73,-1.03 -1.73,-2.03 l 0,-4.09 -4.35,0 c -0.79,0 -2.03,0 -2.03,-1.55 0,-1.48 1.24,-1.48 1.99,-1.48 l 4.39,0 0,-12.16 c 0,-4.78 3.39,-6.58 7.01,-6.58 3.69,0 7.74,2.14 7.74,6.58 0,0.89 0,1.94 -1.75,1.94 -1.64,0 -1.69,-1.05 -1.69,-1.89 -0.06,-3.1 -2.89,-3.6 -4.05,-3.6 -3.82,0 -3.82,2.6 -3.82,3.85 z"
           id="path4534"
           inkscape:connector-curvature="0"
           style="fill:#000000;stroke-width:0" /><path
           d="m 549.38,425.64 0,0.14 0,0.13 -0.01,0.13 -0.01,0.12 -0.01,0.12 -0.01,0.11 -0.02,0.11 -0.01,0.1 -0.03,0.1 -0.02,0.09 -0.03,0.08 -0.03,0.08 -0.04,0.08 -0.04,0.07 -0.05,0.07 -0.05,0.06 -0.06,0.05 -0.06,0.06 -0.06,0.04 -0.08,0.05 -0.07,0.04 -0.09,0.04 -0.09,0.03 -0.09,0.03 -0.11,0.02 -0.11,0.02 -0.11,0.02 -0.13,0.01 -0.13,0.01 -0.13,0.01 -0.15,0.01 -0.08,0 -0.07,0 -7.08,0 c -0.75,0 -2.05,0 -2.05,-1.49 0,-1.54 1.3,-1.54 2.05,-1.54 l 5.62,0 0,-15.39 -6.03,0 c -0.8,0 -2.03,0 -2.03,-1.55 0,-1.5 1.3,-1.5 2.03,-1.5 l 14.7,0 c 0.75,0 2.05,0 2.05,1.5 0,1.55 -1.3,1.55 -2.05,1.55 l -5.23,0 z"
           id="path4536"
           inkscape:connector-curvature="0"
           style="fill:#000000;stroke-width:0" /><path
           d="m 549.38,434.2 0,0.13 -0.01,0.13 -0.02,0.12 -0.02,0.13 -0.03,0.12 -0.03,0.11 -0.04,0.12 -0.04,0.11 -0.05,0.11 -0.06,0.11 -0.06,0.11 -0.06,0.1 -0.07,0.09 -0.07,0.1 -0.08,0.09 -0.08,0.08 -0.09,0.08 -0.09,0.08 -0.09,0.08 -0.1,0.06 -0.1,0.07 -0.1,0.06 -0.11,0.05 -0.11,0.05 -0.11,0.05 -0.12,0.03 -0.12,0.04 -0.12,0.02 -0.12,0.03 -0.13,0.01 -0.13,0.01 -0.12,0 c -1.4,0 -2.5,-1.09 -2.5,-2.48 0,-1.39 1.1,-2.49 2.5,-2.49 1.38,0 2.48,1.1 2.48,2.49 z"
           id="path4538"
           inkscape:connector-curvature="0"
           style="fill:#000000;stroke-width:0" /><path
           d="m 581.27,415.71 0.19,0.01 0.2,0 0.09,0 0.09,0.01 0.09,0 0.09,0.01 0.09,0.02 0.08,0.01 0.09,0.02 0.08,0.02 0.08,0.03 0.07,0.03 0.07,0.03 0.07,0.05 0.07,0.04 0.06,0.05 0.07,0.06 0.05,0.07 0.06,0.07 0.02,0.03 0.02,0.04 0.03,0.05 0.02,0.04 0.02,0.05 0.02,0.04 0.02,0.05 0.02,0.05 0.01,0.06 0.02,0.05 0.02,0.06 0.01,0.06 0.01,0.07 0.01,0.06 0.01,0.07 0.01,0.07 0.01,0.07 0,0.07 0.01,0.08 0,0.08 0,0.08 0,0.09 c 0,5.67 -3.18,10.56 -9.65,10.56 -5.94,0 -10.72,-4.98 -10.72,-11.11 0,-6.08 5.03,-11.11 11.47,-11.11 6.58,0 8.9,4.49 8.9,5.74 0,1.39 -1.43,1.39 -1.73,1.39 -0.89,0 -1.3,-0.16 -1.64,-1.1 -1.1,-2.54 -3.8,-3 -5.19,-3 -3.73,0 -7.47,2.5 -8.26,6.78 l 0.04,2.99 c 0.71,3.64 3.64,6.37 7.13,6.37 2.59,0 5.67,-1.23 6.12,-6.37 l -13.25,0 -0.04,-2.99 z"
           id="path4540"
           inkscape:connector-curvature="0"
           style="fill:#000000;stroke-width:0" /><path
           d="m 594.57,425.32 0,0.15 0,0.14 -0.01,0.14 0,0.13 0,0.13 -0.01,0.12 0,0.12 -0.02,0.11 -0.01,0.11 -0.01,0.1 -0.02,0.1 -0.03,0.1 -0.03,0.09 -0.03,0.08 -0.04,0.08 -0.04,0.07 -0.05,0.07 -0.06,0.07 -0.06,0.06 -0.07,0.06 -0.07,0.05 -0.09,0.05 -0.04,0.02 -0.05,0.02 -0.05,0.02 -0.05,0.02 -0.05,0.01 -0.06,0.02 -0.06,0.01 -0.06,0.02 -0.06,0.01 -0.07,0.01 -0.06,0.01 -0.07,0.01 -0.08,0.01 -0.07,0.01 -0.08,0 -0.08,0.01 -0.08,0 -0.09,0.01 -0.09,0 -0.09,0 -3.64,0 c -0.79,0 -2.04,0 -2.04,-1.55 0,-1.48 1.29,-1.48 2,-1.48 l 2.23,0 0,-15.39 -2.19,0 c -0.79,0 -2.04,0 -2.04,-1.55 0,-1.5 1.29,-1.5 2,-1.5 l 7.92,0 c 0.68,0 1.98,0 1.98,1.5 0,1.55 -1.23,1.55 -2.03,1.55 l -2.2,0 0,8.81 c 0,4.98 3.68,6.87 6.23,6.87 2.64,0 3.35,-1.39 3.35,-4.39 l 0,-11.29 -1.96,0 c -0.79,0 -2.04,0 -2.04,-1.55 0,-1.5 1.35,-1.5 2.04,-1.5 l 7.63,0 c 0.7,0 2,0 2,1.5 0,1.55 -1.25,1.55 -2.05,1.55 l -2.19,0 0,11.54 c 0,5.03 -2.55,7.17 -6.48,7.17 -3.35,0 -5.58,-1.68 -6.53,-2.64 z"
           id="path4542"
           inkscape:connector-curvature="0"
           style="fill:#000000;stroke-width:0" /><path
           d="m 623.52,424.64 8.17,0 c 0.75,0 1.99,0 1.99,1.48 0,1.55 -1.19,1.55 -1.99,1.55 l -8.17,0 0,4.09 c 0,0.94 0,2.03 -1.7,2.03 -1.74,0 -1.74,-1.03 -1.74,-2.03 l 0,-4.09 -4.34,0 c -0.8,0 -2.03,0 -2.03,-1.55 0,-1.48 1.23,-1.48 1.98,-1.48 l 4.39,0 0,-12.16 c 0,-4.78 3.39,-6.58 7.02,-6.58 3.68,0 7.73,2.14 7.73,6.58 0,0.89 0,1.94 -1.75,1.94 -1.64,0 -1.68,-1.05 -1.68,-1.89 -0.07,-3.1 -2.9,-3.6 -4.05,-3.6 -3.83,0 -3.83,2.6 -3.83,3.85 z"
           id="path4544"
           inkscape:connector-curvature="0"
           style="fill:#000000;stroke-width:0" /></g>    </g>
    <g
       id="g4646"
       transform="matrix(0.38547038,0,0,0.38547038,305.99328,-52.619699)">
      <g
         word-spacing="normal"
         letter-spacing="normal"
         font-size-adjust="none"
         font-stretch="normal"
         font-weight="normal"
         font-variant="normal"
         font-style="normal"
         stroke-miterlimit="10.433"
         xml:space="preserve"
         transform="matrix(1.0629921,0,0,-1.0629921,-186.02362,789.27165)"
         id="g4648"
         style="font-style:normal;font-variant:normal;font-weight:normal;font-stretch:normal;letter-spacing:normal;word-spacing:normal;text-anchor:start;fill:none;fill-opacity:1;fill-rule:evenodd;stroke:#000000;stroke-linecap:butt;stroke-linejoin:miter;stroke-miterlimit:10.43299961;stroke-dasharray:none;stroke-dashoffset:0;stroke-opacity:1"><path
           id="path4650"
           d="m 471.27,435.29 -0.02,0.09 -0.02,0.08 -0.03,0.09 -0.02,0.08 -0.02,0.07 -0.02,0.08 -0.03,0.07 -0.02,0.07 -0.05,0.13 -0.06,0.12 -0.05,0.12 -0.06,0.1 -0.06,0.1 -0.06,0.09 -0.06,0.08 -0.07,0.08 -0.07,0.06 -0.07,0.07 -0.07,0.05 -0.08,0.05 -0.08,0.04 -0.09,0.04 -0.09,0.04 -0.09,0.03 -0.09,0.02 -0.1,0.02 -0.11,0.02 -0.1,0.01 -0.11,0.01 -0.12,0.01 -0.12,0.01 -0.12,0 -0.13,0.01 -0.13,0 -0.14,0 -0.14,0 c -1.44,0 -2.24,0 -2.69,-1.89 l -6.03,-26.09 c -0.69,0 -1.85,0 -2.14,-0.11 -0.55,-0.3 -0.85,-0.8 -0.85,-1.44 0,-1.5 1.3,-1.5 2.14,-1.5 l 5.08,0 c 0.91,0 2.1,0 2.1,1.5 0,1.55 -0.99,1.55 -2.79,1.55 l 1.15,5.17 0.75,3.04 3.28,15.74 0.06,0 3.23,-15.74 -6.57,0 -0.75,-3.04 8.07,0 1.14,-5.17 c -1.79,0 -2.79,0 -2.79,-1.55 0,-1.5 1.2,-1.5 2.09,-1.5 l 5.09,0 c 0.85,0 2.15,0 2.15,1.5 0,0.64 -0.25,1.14 -0.85,1.39 -0.31,0.16 -1.4,0.16 -2.15,0.16 z"
           inkscape:connector-curvature="0"
           style="fill:#000000;stroke-width:0" /><path
           id="path4652"
           d="m 499.52,407.79 0,-0.07 0.01,-0.07 0,-0.07 0.01,-0.07 0.01,-0.06 0.01,-0.06 0.01,-0.06 0.01,-0.06 0.02,-0.06 0.01,-0.05 0.02,-0.06 0.01,-0.05 0.02,-0.04 0.02,-0.05 0.02,-0.05 0.02,-0.04 0.03,-0.04 0.02,-0.04 0.03,-0.04 0.02,-0.03 0.06,-0.07 0.05,-0.06 0.06,-0.06 0.07,-0.05 0.07,-0.04 0.07,-0.04 0.07,-0.04 0.07,-0.03 0.08,-0.02 0.08,-0.03 0.08,-0.02 0.08,-0.01 0.08,-0.02 0.08,-0.01 0.09,0 0.08,-0.01 0.17,-0.01 0.18,0 0.16,0 3.64,0 c 0.8,0 2.05,0 2.05,1.55 0,1.5 -1.3,1.5 -2,1.5 l -2.23,0 0,16.39 c 0,1.53 -0.32,2.03 -2,2.03 l -3.64,0 c -0.8,0 -2.05,0 -2.05,-1.55 0,-1.48 1.3,-1.48 2,-1.48 l 2.25,0 0,-10.61 c 0,-4.49 -4.05,-5.1 -5.64,-5.1 -3.94,0 -3.94,1.66 -3.94,3.25 l 0,13.46 c 0,1.53 -0.3,2.03 -1.98,2.03 l -3.64,0 c -0.8,0 -2.05,0 -2.05,-1.55 0,-1.48 1.3,-1.48 2,-1.48 l 2.23,0 0,-12.77 c 0,-4.78 3.44,-5.97 7.08,-5.97 2.05,0 4.1,0.5 5.94,1.89 z"
           inkscape:connector-curvature="0"
           style="fill:#000000;stroke-width:0" /><path
           id="path4654"
           d="m 518.9,424.64 8.17,0 c 0.75,0 1.98,0 1.98,1.48 0,1.55 -1.19,1.55 -1.98,1.55 l -8.17,0 0,4.09 c 0,0.94 0,2.03 -1.71,2.03 -1.73,0 -1.73,-1.03 -1.73,-2.03 l 0,-4.09 -4.35,0 c -0.79,0 -2.03,0 -2.03,-1.55 0,-1.48 1.24,-1.48 1.99,-1.48 l 4.39,0 0,-12.16 c 0,-4.78 3.39,-6.58 7.01,-6.58 3.69,0 7.74,2.14 7.74,6.58 0,0.89 0,1.94 -1.75,1.94 -1.64,0 -1.69,-1.05 -1.69,-1.89 -0.06,-3.1 -2.89,-3.6 -4.05,-3.6 -3.82,0 -3.82,2.6 -3.82,3.85 z"
           inkscape:connector-curvature="0"
           style="fill:#000000;stroke-width:0" /><path
           id="path4656"
           d="m 555.27,420.79 -0.01,0.47 -0.02,0.44 -0.04,0.43 -0.05,0.42 -0.06,0.39 -0.08,0.38 -0.09,0.37 -0.11,0.35 -0.12,0.33 -0.13,0.32 -0.15,0.3 -0.15,0.28 -0.17,0.27 -0.19,0.26 -0.19,0.24 -0.21,0.23 -0.21,0.21 -0.23,0.19 -0.24,0.18 -0.25,0.17 -0.26,0.16 -0.28,0.13 -0.28,0.13 -0.29,0.11 -0.3,0.1 -0.31,0.08 -0.33,0.08 -0.33,0.05 -0.34,0.05 -0.34,0.03 -0.36,0.02 -0.37,0 c -3.34,0 -5.57,-1.68 -6.53,-2.64 l 0,9.27 c 0,1.55 -0.29,2.05 -1.98,2.05 l -3.64,0 c -0.8,0 -2.05,0 -2.05,-1.55 0,-1.48 1.3,-1.48 2,-1.48 l 2.24,0 0,-24.36 -2.19,0 c -0.8,0 -2.05,0 -2.05,-1.55 0,-1.5 1.3,-1.5 2,-1.5 l 7.92,0 c 0.69,0 1.99,0 1.99,1.5 0,1.55 -1.24,1.55 -2.03,1.55 l -2.21,0 0,8.81 c 0,4.98 3.69,6.87 6.24,6.87 2.64,0 3.34,-1.39 3.34,-4.39 l 0,-11.29 -1.95,0 c -0.8,0 -2.05,0 -2.05,-1.55 0,-1.5 1.36,-1.5 2.05,-1.5 l 7.62,0 c 0.71,0 2,0 2,1.5 0,1.55 -1.25,1.55 -2.04,1.55 l -2.19,0 z"
           inkscape:connector-curvature="0"
           style="fill:#000000;stroke-width:0" /></g>    </g>
  </g>
</svg>
